<svg width="479" height="106" viewBox="0 0 479 106" fill="none" xmlns="http://www.w3.org/2000/svg">
<path d="M118.246 44.0048C118.246 39.8694 119.14 36.1913 120.93 32.9704C122.719 29.7098 125.204 27.1848 128.385 25.3955C131.606 23.5664 135.245 22.6518 139.3 22.6518C144.271 22.6518 148.526 23.964 152.065 26.5884C155.604 29.2128 157.969 32.7915 159.162 37.3246H147.949C147.114 35.575 145.921 34.2429 144.37 33.3283C142.859 32.4138 141.13 31.9565 139.181 31.9565C136.04 31.9565 133.495 33.05 131.547 35.237C129.598 37.424 128.624 40.3466 128.624 44.0048C128.624 47.6631 129.598 50.5857 131.547 52.7727C133.495 54.9597 136.04 56.0532 139.181 56.0532C141.13 56.0532 142.859 55.5959 144.37 54.6814C145.921 53.7668 147.114 52.4347 147.949 50.6851H159.162C157.969 55.2182 155.604 58.7969 152.065 61.4213C148.526 64.0059 144.271 65.2982 139.3 65.2982C135.245 65.2982 131.606 64.4035 128.385 62.6142C125.204 60.7851 122.719 58.2601 120.93 55.0392C119.14 51.8184 118.246 48.1402 118.246 44.0048ZM186.761 65L178.053 49.194H175.608V65H165.408V23.129H182.527C185.827 23.129 188.63 23.7055 190.937 24.8587C193.283 26.0118 195.032 27.6024 196.185 29.6303C197.338 31.6185 197.915 33.8452 197.915 36.3106C197.915 39.094 197.12 41.5793 195.529 43.7663C193.978 45.9532 191.672 47.504 188.61 48.4186L198.273 65H186.761ZM175.608 41.9769H181.93C183.799 41.9769 185.191 41.5196 186.105 40.605C187.06 39.6905 187.537 38.3982 187.537 36.7281C187.537 35.1376 187.06 33.885 186.105 32.9704C185.191 32.0559 183.799 31.5986 181.93 31.5986H175.608V41.9769ZM214.517 31.3004V39.77H228.176V47.6432H214.517V56.8286H229.965V65H204.318V23.129H229.965V31.3004H214.517ZM252.273 23.129C256.687 23.129 260.544 24.0038 263.845 25.7534C267.145 27.5029 269.69 29.9683 271.479 33.1494C273.308 36.2907 274.223 39.9291 274.223 44.0645C274.223 48.1601 273.308 51.7985 271.479 54.9796C269.69 58.1607 267.125 60.626 263.785 62.3756C260.485 64.1252 256.647 65 252.273 65H236.587V23.129H252.273ZM251.617 56.1725C255.474 56.1725 258.477 55.1188 260.624 53.0113C262.771 50.9038 263.845 47.9215 263.845 44.0645C263.845 40.2074 262.771 37.2053 260.624 35.058C258.477 32.9108 255.474 31.8372 251.617 31.8372H246.786V56.1725H251.617ZM290.122 23.129V65H279.923V23.129H290.122ZM327.634 23.129V31.3004H316.54V65H306.341V31.3004H295.247V23.129H327.634ZM372.651 23.129V31.3004H355.592V40.1279H368.356V48.0607H355.592V65H345.393V23.129H372.651ZM397.814 65.4175C393.877 65.4175 390.259 64.503 386.958 62.6738C383.698 60.8447 381.093 58.2998 379.145 55.0392C377.236 51.7388 376.282 48.0408 376.282 43.9452C376.282 39.8495 377.236 36.1714 379.145 32.9108C381.093 29.6502 383.698 27.1053 386.958 25.2762C390.259 23.4471 393.877 22.5325 397.814 22.5325C401.75 22.5325 405.349 23.4471 408.609 25.2762C411.91 27.1053 414.495 29.6502 416.363 32.9108C418.272 36.1714 419.226 39.8495 419.226 43.9452C419.226 48.0408 418.272 51.7388 416.363 55.0392C414.455 58.2998 411.87 60.8447 408.609 62.6738C405.349 64.503 401.75 65.4175 397.814 65.4175ZM397.814 56.1128C401.154 56.1128 403.818 54.9995 405.806 52.7727C407.834 50.5459 408.848 47.6034 408.848 43.9452C408.848 40.2472 407.834 37.3047 405.806 35.1177C403.818 32.8909 401.154 31.7775 397.814 31.7775C394.434 31.7775 391.73 32.871 389.702 35.058C387.714 37.245 386.72 40.2074 386.72 43.9452C386.72 47.6432 387.714 50.6056 389.702 52.8323C391.73 55.0193 394.434 56.1128 397.814 56.1128ZM446.254 65L437.545 49.194H435.1V65H424.901V23.129H442.019C445.319 23.129 448.123 23.7055 450.429 24.8587C452.775 26.0118 454.524 27.6024 455.678 29.6303C456.831 31.6185 457.407 33.8452 457.407 36.3106C457.407 39.094 456.612 41.5793 455.022 43.7663C453.471 45.9532 451.164 47.504 448.103 48.4186L457.765 65H446.254ZM435.1 41.9769H441.422C443.291 41.9769 444.683 41.5196 445.598 40.605C446.552 39.6905 447.029 38.3982 447.029 36.7281C447.029 35.1376 446.552 33.885 445.598 32.9704C444.683 32.0559 443.291 31.5986 441.422 31.5986H435.1V41.9769Z" fill="#146AA8"/>
<path d="M122.822 98H116.778L122.853 79.6814L120.88 76.1743H130.306C130.786 76.1743 131.256 76.2995 131.715 76.55C132.174 76.7797 132.592 77.1032 132.968 77.5208C133.343 77.9174 133.646 78.3975 133.876 78.9612C134.126 79.504 134.272 80.0781 134.314 80.6835L135.441 98H129.429L129.116 92.8958H124.419L122.822 98ZM128.803 88.6372L128.302 80.6835L125.765 88.6372H128.803ZM144.364 98L145.585 89.2321H149.812L153.257 84.9735H146.18L146.837 80.4643H155.417L156.044 76.1743H139.166L141.483 79.838L138.915 98H144.364ZM162.253 98L163.474 89.2321H167.701L171.146 84.9735H164.069L164.727 80.4643H173.307L173.933 76.1743H157.055L159.372 79.838L156.804 98H162.253ZM183.18 76.1743H174.913L177.23 79.8067L174.662 98H180.079L183.18 76.1743ZM189.972 93.71L192.446 76.1743H184.179L186.496 79.8067L183.929 98H197.957L198.552 93.71H189.972ZM210.304 76.1743H202.037L204.354 79.8067L201.787 98H207.204L210.304 76.1743ZM214.623 98H208.579L214.654 79.6814L212.681 76.1743H222.107C222.587 76.1743 223.057 76.2995 223.516 76.55C223.975 76.7797 224.393 77.1032 224.768 77.5208C225.144 77.9174 225.447 78.3975 225.677 78.9612C225.927 79.504 226.073 80.0781 226.115 80.6835L227.242 98H221.23L220.917 92.8958H216.22L214.623 98ZM220.604 88.6372L220.103 80.6835L217.566 88.6372H220.604ZM234.789 80.4643L232.315 98H237.701L240.206 80.4643H245.717L246.344 76.1743H226.929L229.309 80.4643H234.789ZM253.15 93.71L253.777 89.2321H258.004L261.448 84.9735H254.372L255.029 80.4643H263.609L264.235 76.1743H247.357L249.674 79.838L247.702 93.71H244.852L247.107 98H261.135L261.73 93.71H253.15ZM292.923 98H287.506L289.979 80.4329H285.345L282.871 98H277.454L280.523 76.1743H303.758L306.012 80.1824L303.507 98H297.213L299.436 82.1865C299.144 81.602 298.925 81.1636 298.779 80.8713C298.633 80.5791 298.559 80.4329 298.559 80.4329H295.428L292.923 98ZM310.919 98H304.875L310.95 79.6814L308.977 76.1743H318.403C318.883 76.1743 319.353 76.2995 319.812 76.55C320.271 76.7797 320.689 77.1032 321.065 77.5208C321.44 77.9174 321.743 78.3975 321.973 78.9612C322.223 79.504 322.369 80.0781 322.411 80.6835L323.538 98H317.526L317.213 92.8958H312.516L310.919 98ZM316.9 88.6372L316.399 80.6835L313.862 88.6372H316.9ZM335.066 98H341.36L338.103 88.0109C338.75 87.9274 339.345 87.7082 339.888 87.3533C340.431 86.9984 340.901 86.56 341.297 86.0381C341.715 85.4953 342.049 84.8899 342.299 84.2219C342.571 83.533 342.759 82.8128 342.863 82.0613C342.905 81.8316 342.926 81.5916 342.926 81.341C342.946 81.0697 342.957 80.8087 342.957 80.5582C342.957 79.9737 342.894 79.4205 342.769 78.8986C342.644 78.3767 342.456 77.9174 342.205 77.5208C341.955 77.1032 341.631 76.7797 341.235 76.55C340.859 76.2995 340.41 76.1743 339.888 76.1743H325.672L327.989 79.8067L325.421 98H330.838L332.248 88.0735L332.435 88.324L335.066 98ZM335.755 80.4643C335.88 80.4643 336.047 80.4851 336.256 80.5269C336.485 80.5686 336.705 80.6417 336.913 80.7461C337.122 80.8296 337.299 80.9653 337.446 81.1532C337.592 81.3202 337.665 81.5394 337.665 81.8108C337.686 81.8316 337.675 81.936 337.633 82.1239L337.602 82.4057C337.498 83.1364 337.279 83.7313 336.945 84.1906C336.611 84.629 336.203 84.9735 335.723 85.224C335.264 85.4536 334.753 85.6102 334.189 85.6937C333.646 85.7772 333.114 85.8189 332.592 85.8189L333.343 80.4643H335.755ZM358.438 76.1743L351.674 85.8189L353.02 76.143H344.753L347.102 79.7754L344.503 98H349.92L351.329 88.1361L351.517 88.3867L355.275 98H361.569L356.935 86.6957L364.638 76.1743H358.438ZM371.494 93.71L372.121 89.2321H376.348L379.793 84.9735H372.716L373.373 80.4643H381.953L382.58 76.1743H365.701L368.019 79.838L366.046 93.71H363.196L365.451 98H379.48L380.074 93.71H371.494ZM391.419 80.4643L388.945 98H394.331L396.836 80.4643H402.348L402.974 76.1743H383.559L385.939 80.4643H391.419ZM409.781 93.71L410.407 89.2321H414.634L418.079 84.9735H411.002L411.659 80.4643H420.239L420.866 76.1743H403.987L406.305 79.838L404.332 93.71H401.482L403.737 98H417.766L418.361 93.71H409.781ZM431.24 98H437.534L434.277 88.0109C434.924 87.9274 435.519 87.7082 436.062 87.3533C436.605 86.9984 437.074 86.56 437.471 86.0381C437.888 85.4953 438.223 84.8899 438.473 84.2219C438.744 83.533 438.932 82.8128 439.037 82.0613C439.078 81.8316 439.099 81.5916 439.099 81.341C439.12 81.0697 439.131 80.8087 439.131 80.5582C439.131 79.9737 439.068 79.4205 438.943 78.8986C438.817 78.3767 438.63 77.9174 438.379 77.5208C438.129 77.1032 437.805 76.7797 437.408 76.55C437.033 76.2995 436.584 76.1743 436.062 76.1743H421.845L424.163 79.8067L421.595 98H427.012L428.421 88.0735L428.609 88.324L431.24 98ZM431.928 80.4643C432.054 80.4643 432.221 80.4851 432.429 80.5269C432.659 80.5686 432.878 80.6417 433.087 80.7461C433.296 80.8296 433.473 80.9653 433.619 81.1532C433.766 81.3202 433.839 81.5394 433.839 81.8108C433.859 81.8316 433.849 81.936 433.807 82.1239L433.776 82.4057C433.672 83.1364 433.452 83.7313 433.118 84.1906C432.784 84.629 432.377 84.9735 431.897 85.224C431.438 85.4536 430.926 85.6102 430.363 85.6937C429.82 85.7772 429.288 85.8189 428.766 85.8189L429.517 80.4643H431.928ZM448.38 93.71C448.505 93.71 448.683 93.6996 448.912 93.6787C449.163 93.6369 449.403 93.5639 449.632 93.4595C449.862 93.3551 450.081 93.2194 450.29 93.0524C450.499 92.8645 450.635 92.6245 450.697 92.3322C450.697 92.3113 450.718 92.2174 450.76 92.0504L450.791 91.7686C450.812 91.6224 450.822 91.4972 450.822 91.3928C450.843 91.2675 450.854 91.1527 450.854 91.0483C450.854 90.5056 450.718 90.1611 450.447 90.015C450.175 89.848 449.8 89.7123 449.319 89.6079L447.159 89.4513C446.219 89.3678 445.353 89.2634 444.56 89.1382C443.766 88.9921 443.077 88.7415 442.493 88.3867C441.929 88.0318 441.48 87.5307 441.146 86.8836C440.833 86.2364 440.677 85.3597 440.677 84.2532C440.677 83.961 440.687 83.6478 440.708 83.3138C440.75 82.9589 440.792 82.5936 440.833 82.2178C440.938 81.5081 441.157 80.7983 441.491 80.0885C441.825 79.3578 442.222 78.7107 442.681 78.147C443.161 77.5625 443.683 77.0928 444.247 76.7379C444.831 76.3622 445.416 76.1743 446 76.1743H458.212L457.586 80.4643H448.443C448.317 80.4643 448.129 80.4851 447.879 80.5269C447.649 80.5686 447.409 80.6417 447.159 80.7461C446.908 80.8296 446.679 80.9653 446.47 81.1532C446.282 81.341 446.167 81.5707 446.125 81.8421C446.084 81.8838 446.063 81.9464 446.063 82.03L446 82.4997C445.979 82.6249 445.958 82.7397 445.937 82.8441C445.937 82.9485 445.937 83.0529 445.937 83.1573C445.937 83.7 446.052 84.0549 446.282 84.2219C446.512 84.3889 446.835 84.5246 447.253 84.629L449.664 84.7856C450.603 84.8482 451.47 84.9421 452.263 85.0674C453.056 85.1926 453.735 85.4327 454.298 85.7876C454.883 86.1425 455.332 86.6435 455.645 87.2907C455.958 87.9378 456.114 88.8146 456.114 89.921C456.114 90.2133 456.104 90.5369 456.083 90.8918C456.062 91.2258 456.021 91.5807 455.958 91.9564C455.854 92.6662 455.645 93.3864 455.332 94.1171C455.039 94.8269 454.674 95.474 454.236 96.0585C453.797 96.6222 453.296 97.0919 452.733 97.4677C452.19 97.8226 451.637 98 451.073 98H438.61L439.205 93.71H448.38Z" fill="#F98E00"/>
<g clip-path="url(#clip0)">
<path d="M104.134 80.5515L110.545 39.6204C111.211 35.4668 108.385 31.5586 104.231 30.8901L17.7315 17.0066C13.578 16.34 9.67 19.1662 9.00344 23.3198L5.92969 42.4617V80.3134L104.134 80.5515Z" fill="#146AA8"/>
<path d="M104.232 30.8909L79.664 26.9487C63.1636 52.1963 36.4893 69.6833 16.0332 80.3389L104.135 80.5522L110.545 39.6211C111.212 35.4673 108.385 31.5594 104.232 30.8909Z" fill="#126099"/>
<path d="M8.91092 40.5576H96.5171C100.724 40.5576 104.135 43.9686 104.135 48.1756V97.6922C104.135 101.899 100.724 105.31 96.5171 105.31H8.91092C4.70395 105.31 1.29297 101.899 1.29297 97.6922V48.1756C1.29297 43.9686 4.70395 40.5576 8.91092 40.5576Z" fill="#4398D1"/>
<path d="M96.5176 40.5576H94.9939C77.0155 72.4749 43.4226 94.3687 22.915 105.31H96.5176C100.725 105.31 104.136 101.899 104.136 97.692V48.1756C104.136 43.9686 100.725 40.5576 96.5176 40.5576Z" fill="#3E8CC7"/>
<path d="M29.8612 50.0801H10.8164V65.316H29.8612V50.0801Z" fill="#FDB62F"/>
<path d="M16.5299 55.7939H10.8164V59.6028H16.5299V55.7939Z" fill="#FD7B2F"/>
<path d="M29.861 55.7935H24.1475V59.6023H29.861V55.7935Z" fill="#FD7B2F"/>
<path d="M85.0907 95.7879C90.3498 95.7879 94.6131 91.5246 94.6131 86.2656C94.6131 81.0065 90.3498 76.7432 85.0907 76.7432C79.8317 76.7432 75.5684 81.0065 75.5684 86.2656C75.5684 91.5246 79.8317 95.7879 85.0907 95.7879Z" fill="#FDB62F"/>
<path d="M73.663 95.7879C78.9221 95.7879 83.1854 91.5246 83.1854 86.2656C83.1854 81.0065 78.9221 76.7432 73.663 76.7432C68.4039 76.7432 64.1406 81.0065 64.1406 86.2656C64.1406 91.5246 68.4039 95.7879 73.663 95.7879Z" fill="#DE4C3C"/>
<path d="M20.337 78.647H8.91016V82.4558H20.337V78.647Z" fill="#87CED9"/>
<path d="M39.3819 78.647H27.9551V82.4558H39.3819V78.647Z" fill="#87CED9"/>
<path d="M58.4268 78.647H47V82.4558H58.4268V78.647Z" fill="#87CED9"/>
<path d="M58.4267 90.0742H8.91016V93.8831H58.4267V90.0742Z" fill="#87CED9"/>
<path d="M71.7591 50.0801H67.9502V57.698H71.7591V50.0801Z" fill="#87CED9"/>
<path d="M79.3762 50.0801H75.5674V57.698H79.3762V50.0801Z" fill="#87CED9"/>
<path d="M86.9935 50.0801H83.1846V57.698H86.9935V50.0801Z" fill="#87CED9"/>
<path d="M94.6116 50.0801H90.8027V57.698H94.6116V50.0801Z" fill="#87CED9"/>
</g>
<defs>
<clipPath id="clip0">
<rect width="109.35" height="88.4194" fill="white" transform="translate(1.29297 16.8999)"/>
</clipPath>
</defs>
</svg>
