<svg width="271" height="60" viewBox="0 0 271 60" fill="none" xmlns="http://www.w3.org/2000/svg">
<path d="M66.7469 25.1159C66.7469 22.7751 67.2534 20.6932 68.2662 18.8701C69.2791 17.0244 70.6858 15.5952 72.4864 14.5823C74.3095 13.547 76.369 13.0293 78.6648 13.0293C81.4782 13.0293 83.8865 13.7721 85.8897 15.2576C87.8929 16.7431 89.2321 18.7688 89.9073 21.3347H83.5602C83.0875 20.3443 82.4123 19.5903 81.5345 19.0726C80.6792 18.555 79.7001 18.2961 78.5972 18.2961C76.8191 18.2961 75.3786 18.9151 74.2758 20.153C73.1729 21.3909 72.6214 23.0452 72.6214 25.1159C72.6214 27.1866 73.1729 28.841 74.2758 30.0789C75.3786 31.3168 76.8191 31.9358 78.5972 31.9358C79.7001 31.9358 80.6792 31.6769 81.5345 31.1593C82.4123 30.6416 83.0875 29.8876 83.5602 28.8972H89.9073C89.2321 31.4631 87.8929 33.4888 85.8897 34.9743C83.8865 36.4373 81.4782 37.1688 78.6648 37.1688C76.369 37.1688 74.3095 36.6624 72.4864 35.6495C70.6858 34.6142 69.2791 33.1849 68.2662 31.3618C67.2534 29.5387 66.7469 27.4567 66.7469 25.1159ZM105.529 37L100.6 28.0532H99.216V37H93.4428V13.2994H103.132C105.001 13.2994 106.587 13.6258 107.893 14.2785C109.221 14.9312 110.211 15.8315 110.864 16.9794C111.516 18.1048 111.843 19.3652 111.843 20.7607C111.843 22.3362 111.393 23.743 110.492 24.9809C109.615 26.2188 108.309 27.0966 106.576 27.6143L112.045 37H105.529ZM99.216 23.9681H102.795C103.853 23.9681 104.64 23.7092 105.158 23.1915C105.698 22.6739 105.968 21.9424 105.968 20.997C105.968 20.0967 105.698 19.3877 105.158 18.8701C104.64 18.3524 103.853 18.0935 102.795 18.0935H99.216V23.9681ZM121.24 17.9247V22.7189H128.972V27.1754H121.24V32.3747H129.984V37H115.467V13.2994H129.984V17.9247H121.24ZM142.612 13.2994C145.11 13.2994 147.293 13.7946 149.161 14.7849C151.03 15.7753 152.47 17.1707 153.483 18.9713C154.518 20.7495 155.036 22.8089 155.036 25.1497C155.036 27.468 154.518 29.5274 153.483 31.3281C152.47 33.1287 151.018 34.5242 149.128 35.5145C147.26 36.5048 145.088 37 142.612 37H133.732V13.2994H142.612ZM142.24 32.0033C144.424 32.0033 146.123 31.4068 147.338 30.2139C148.554 29.021 149.161 27.3329 149.161 25.1497C149.161 22.9665 148.554 21.2671 147.338 20.0517C146.123 18.8363 144.424 18.2286 142.24 18.2286H139.506V32.0033H142.24ZM164.036 13.2994V37H158.262V13.2994H164.036ZM185.269 13.2994V17.9247H178.989V37H173.216V17.9247H166.936V13.2994H185.269ZM210.75 13.2994V17.9247H201.094V22.9214H208.319V27.4117H201.094V37H195.321V13.2994H210.75ZM224.993 37.2363C222.765 37.2363 220.717 36.7187 218.848 35.6833C217.003 34.6479 215.529 33.2075 214.426 31.3618C213.345 29.4937 212.805 27.4005 212.805 25.0822C212.805 22.7639 213.345 20.6819 214.426 18.8363C215.529 16.9907 217.003 15.5502 218.848 14.5148C220.717 13.4795 222.765 12.9618 224.993 12.9618C227.221 12.9618 229.258 13.4795 231.104 14.5148C232.972 15.5502 234.435 16.9907 235.493 18.8363C236.573 20.6819 237.113 22.7639 237.113 25.0822C237.113 27.4005 236.573 29.4937 235.493 31.3618C234.412 33.2075 232.949 34.6479 231.104 35.6833C229.258 36.7187 227.221 37.2363 224.993 37.2363ZM224.993 31.9695C226.884 31.9695 228.392 31.3393 229.517 30.0789C230.665 28.8185 231.239 27.1529 231.239 25.0822C231.239 22.989 230.665 21.3234 229.517 20.0855C228.392 18.825 226.884 18.1948 224.993 18.1948C223.08 18.1948 221.549 18.8138 220.401 20.0517C219.276 21.2896 218.713 22.9665 218.713 25.0822C218.713 27.1754 219.276 28.8522 220.401 30.1126C221.549 31.3506 223.08 31.9695 224.993 31.9695ZM252.412 37L247.483 28.0532H246.098V37H240.325V13.2994H250.015C251.883 13.2994 253.47 13.6258 254.775 14.2785C256.103 14.9312 257.093 15.8315 257.746 16.9794C258.399 18.1048 258.725 19.3652 258.725 20.7607C258.725 22.3362 258.275 23.743 257.375 24.9809C256.497 26.2188 255.192 27.0966 253.458 27.6143L258.928 37H252.412ZM246.098 23.9681H249.677C250.735 23.9681 251.523 23.7092 252.04 23.1915C252.581 22.6739 252.851 21.9424 252.851 20.997C252.851 20.0967 252.581 19.3877 252.04 18.8701C251.523 18.3524 250.735 18.0935 249.677 18.0935H246.098V23.9681Z" fill="#146AA8"/>
<path d="M69.3373 56H65.9164L69.355 45.631L68.2384 43.6458H73.5735C73.8453 43.6458 74.1112 43.7167 74.3711 43.8585C74.6311 43.9885 74.8674 44.1716 75.0801 44.408C75.2928 44.6325 75.4642 44.9043 75.5942 45.2233C75.7359 45.5305 75.8187 45.8555 75.8423 46.1982L76.4804 56H73.0772L72.9 53.1109H70.2413L69.3373 56ZM72.7227 50.7003L72.4391 46.1982L71.0034 50.7003H72.7227ZM81.5307 56L82.222 51.0371H84.6148L86.5646 48.6265H82.5588L82.931 46.0741H87.7876L88.1421 43.6458H78.5884L79.9 45.7196L78.4466 56H81.5307ZM91.6567 56L92.348 51.0371H94.7408L96.6905 48.6265H92.6847L93.057 46.0741H97.9136L98.2681 43.6458H88.7144L90.026 45.7196L88.5726 56H91.6567ZM103.502 43.6458H98.8226L100.134 45.7019L98.6808 56H101.747L103.502 43.6458ZM107.347 53.5717L108.747 43.6458H104.068L105.379 45.7019L103.926 56H111.867L112.203 53.5717H107.347ZM118.855 43.6458H114.176L115.488 45.7019L114.034 56H117.101L118.855 43.6458ZM121.3 56H117.879L121.318 45.631L120.201 43.6458H125.536C125.808 43.6458 126.074 43.7167 126.334 43.8585C126.594 43.9885 126.83 44.1716 127.043 44.408C127.256 44.6325 127.427 44.9043 127.557 45.2233C127.699 45.5305 127.781 45.8555 127.805 46.1982L128.443 56H125.04L124.863 53.1109H122.204L121.3 56ZM124.685 50.7003L124.402 46.1982L122.966 50.7003H124.685ZM132.715 46.0741L131.315 56H134.363L135.781 46.0741H138.901L139.255 43.6458H128.266L129.613 46.0741H132.715ZM143.108 53.5717L143.463 51.0371H145.855L147.805 48.6265H143.799L144.172 46.0741H149.028L149.383 43.6458H139.829L141.141 45.7196L140.024 53.5717H138.411L139.687 56H147.628L147.965 53.5717H143.108ZM165.621 56H162.555L163.955 46.0564H161.332L159.931 56H156.865L158.602 43.6458H171.754L173.03 45.9146L171.612 56H168.049L169.308 47.049C169.142 46.7181 169.018 46.47 168.935 46.3045C168.853 46.1391 168.811 46.0564 168.811 46.0564H167.039L165.621 56ZM175.807 56H172.386L175.825 45.631L174.708 43.6458H180.044C180.315 43.6458 180.581 43.7167 180.841 43.8585C181.101 43.9885 181.337 44.1716 181.55 44.408C181.763 44.6325 181.934 44.9043 182.064 45.2233C182.206 45.5305 182.289 45.8555 182.312 46.1982L182.95 56H179.547L179.37 53.1109H176.711L175.807 56ZM179.193 50.7003L178.909 46.1982L177.473 50.7003H179.193ZM189.475 56H193.038L191.195 50.3458C191.561 50.2985 191.898 50.1744 192.205 49.9736C192.512 49.7727 192.778 49.5245 193.003 49.2291C193.239 48.9219 193.428 48.5792 193.57 48.2011C193.723 47.8111 193.83 47.4035 193.889 46.9781C193.912 46.8481 193.924 46.7122 193.924 46.5704C193.936 46.4168 193.942 46.2691 193.942 46.1273C193.942 45.7964 193.907 45.4833 193.836 45.1879C193.765 44.8925 193.658 44.6325 193.517 44.408C193.375 44.1716 193.192 43.9885 192.967 43.8585C192.754 43.7167 192.5 43.6458 192.205 43.6458H184.158L185.47 45.7019L184.016 56H187.082L187.88 50.3812L187.986 50.523L189.475 56ZM189.865 46.0741C189.936 46.0741 190.031 46.0859 190.149 46.1096C190.279 46.1332 190.403 46.1746 190.521 46.2336C190.639 46.2809 190.74 46.3577 190.822 46.4641C190.905 46.5586 190.946 46.6827 190.946 46.8363C190.958 46.8481 190.952 46.9072 190.929 47.0135L190.911 47.173C190.852 47.5866 190.728 47.9234 190.539 48.1834C190.35 48.4315 190.119 48.6265 189.848 48.7683C189.588 48.8983 189.298 48.9869 188.979 49.0342C188.672 49.0814 188.37 49.1051 188.075 49.1051L188.5 46.0741H189.865ZM202.705 43.6458L198.876 49.1051L199.638 43.6281H194.959L196.288 45.6842L194.817 56H197.884L198.681 50.4167L198.787 50.5585L200.914 56H204.477L201.854 49.6013L206.214 43.6458H202.705ZM210.095 53.5717L210.45 51.0371H212.843L214.792 48.6265H210.787L211.159 46.0741H216.015L216.37 43.6458H206.816L208.128 45.7196L207.011 53.5717H205.398L206.674 56H214.615L214.952 53.5717H210.095ZM221.373 46.0741L219.973 56H223.022L224.44 46.0741H227.559L227.914 43.6458H216.925L218.272 46.0741H221.373ZM231.767 53.5717L232.121 51.0371H234.514L236.464 48.6265H232.458L232.83 46.0741H237.687L238.041 43.6458H228.488L229.799 45.7196L228.683 53.5717H227.07L228.346 56H236.287L236.623 53.5717H231.767ZM243.913 56H247.476L245.633 50.3458C245.999 50.2985 246.336 50.1744 246.643 49.9736C246.95 49.7727 247.216 49.5245 247.441 49.2291C247.677 48.9219 247.866 48.5792 248.008 48.2011C248.161 47.8111 248.268 47.4035 248.327 46.9781C248.35 46.8481 248.362 46.7122 248.362 46.5704C248.374 46.4168 248.38 46.2691 248.38 46.1273C248.38 45.7964 248.345 45.4833 248.274 45.1879C248.203 44.8925 248.096 44.6325 247.955 44.408C247.813 44.1716 247.63 43.9885 247.405 43.8585C247.192 43.7167 246.938 43.6458 246.643 43.6458H238.596L239.907 45.7019L238.454 56H241.52L242.318 50.3812L242.424 50.523L243.913 56ZM244.303 46.0741C244.374 46.0741 244.469 46.0859 244.587 46.1096C244.717 46.1332 244.841 46.1746 244.959 46.2336C245.077 46.2809 245.178 46.3577 245.26 46.4641C245.343 46.5586 245.384 46.6827 245.384 46.8363C245.396 46.8481 245.39 46.9072 245.367 47.0135L245.349 47.173C245.29 47.5866 245.166 47.9234 244.977 48.1834C244.788 48.4315 244.557 48.6265 244.286 48.7683C244.026 48.8983 243.736 48.9869 243.417 49.0342C243.11 49.0814 242.808 49.1051 242.513 49.1051L242.938 46.0741H244.303ZM253.615 53.5717C253.686 53.5717 253.787 53.5658 253.917 53.554C254.059 53.5303 254.194 53.489 254.324 53.4299C254.454 53.3708 254.578 53.294 254.697 53.1995C254.815 53.0931 254.892 52.9572 254.927 52.7918C254.927 52.78 254.939 52.7268 254.963 52.6323L254.98 52.4728C254.992 52.39 254.998 52.3191 254.998 52.2601C255.01 52.1892 255.016 52.1242 255.016 52.0651C255.016 51.7579 254.939 51.5629 254.785 51.4802C254.632 51.3856 254.419 51.3088 254.147 51.2498L252.924 51.1611C252.392 51.1139 251.902 51.0548 251.453 50.9839C251.004 50.9012 250.614 50.7594 250.283 50.5585C249.964 50.3576 249.71 50.074 249.521 49.7077C249.344 49.3414 249.255 48.8451 249.255 48.2188C249.255 48.0534 249.261 47.8761 249.273 47.6871C249.296 47.4862 249.32 47.2794 249.344 47.0667C249.403 46.6649 249.527 46.2632 249.716 45.8614C249.905 45.4478 250.13 45.0815 250.39 44.7625C250.661 44.4316 250.957 44.1657 251.276 43.9649C251.607 43.7522 251.937 43.6458 252.268 43.6458H259.181L258.827 46.0741H253.651C253.58 46.0741 253.474 46.0859 253.332 46.1096C253.202 46.1332 253.066 46.1746 252.924 46.2336C252.782 46.2809 252.652 46.3577 252.534 46.4641C252.428 46.5704 252.363 46.7004 252.339 46.854C252.316 46.8776 252.304 46.9131 252.304 46.9604L252.268 47.2262C252.257 47.2971 252.245 47.3621 252.233 47.4212C252.233 47.4803 252.233 47.5394 252.233 47.5984C252.233 47.9057 252.298 48.1066 252.428 48.2011C252.558 48.2956 252.741 48.3724 252.977 48.4315L254.342 48.5201C254.874 48.5556 255.364 48.6088 255.813 48.6797C256.262 48.7506 256.646 48.8864 256.965 49.0873C257.296 49.2882 257.55 49.5718 257.728 49.9381C257.905 50.3044 257.993 50.8007 257.993 51.427C257.993 51.5924 257.988 51.7756 257.976 51.9765C257.964 52.1655 257.94 52.3664 257.905 52.5791C257.846 52.9809 257.728 53.3885 257.55 53.8021C257.385 54.2039 257.178 54.5702 256.93 54.9011C256.682 55.2201 256.398 55.486 256.079 55.6987C255.772 55.8996 255.459 56 255.14 56H248.085L248.422 53.5717H253.615Z" fill="#F98E00"/>
<g clip-path="url(#clip0)">
<path d="M58.7593 45.5951L62.3879 22.4265C62.7652 20.0755 61.1654 17.8633 58.8142 17.4849L9.85217 9.62629C7.50109 9.24899 5.28903 10.8487 4.91173 13.1998L3.17188 24.0349V45.4603L58.7593 45.5951Z" fill="#146AA8"/>
<path d="M58.8144 17.4849L44.9081 15.2535C35.5682 29.5446 20.4695 39.4429 8.89062 45.4744L58.7594 45.5952L62.3879 22.4266C62.7652 20.0754 61.1655 17.8633 58.8144 17.4849Z" fill="#126099"/>
<path d="M4.85892 22.957H54.4473C56.8286 22.957 58.7594 24.8877 58.7594 27.269V55.2973C58.7594 57.6786 56.8286 59.6093 54.4473 59.6093H4.85892C2.47762 59.6092 0.546875 57.6786 0.546875 55.2973V27.269C0.546875 24.8877 2.47762 22.957 4.85892 22.957Z" fill="#4398D1"/>
<path d="M54.4479 22.957H53.5855C43.4091 41.0234 24.3942 53.4161 12.7861 59.6092H54.4479C56.8293 59.6092 58.76 57.6785 58.76 55.2972V27.269C58.76 24.8877 56.8293 22.957 54.4479 22.957Z" fill="#3E8CC7"/>
<path d="M16.7176 28.347H5.9375V36.9711H16.7176V28.347Z" fill="#FDB62F"/>
<path d="M9.17157 31.5811H5.9375V33.737H9.17157V31.5811Z" fill="#FD7B2F"/>
<path d="M16.7175 31.5811H13.4834V33.737H16.7175V31.5811Z" fill="#FD7B2F"/>
<path d="M47.9799 54.2191C50.9567 54.2191 53.3699 51.8059 53.3699 48.8291C53.3699 45.8522 50.9567 43.439 47.9799 43.439C45.003 43.439 42.5898 45.8522 42.5898 48.8291C42.5898 51.8059 45.003 54.2191 47.9799 54.2191Z" fill="#FDB62F"/>
<path d="M41.5111 54.2191C44.4879 54.2191 46.9011 51.8059 46.9011 48.8291C46.9011 45.8522 44.4879 43.439 41.5111 43.439C38.5343 43.439 36.1211 45.8522 36.1211 48.8291C36.1211 51.8059 38.5343 54.2191 41.5111 54.2191Z" fill="#DE4C3C"/>
<path d="M11.3264 44.5171H4.8584V46.6731H11.3264V44.5171Z" fill="#87CED9"/>
<path d="M22.1067 44.5171H15.6387V46.6731H22.1067V44.5171Z" fill="#87CED9"/>
<path d="M32.887 44.5171H26.4189V46.6731H32.887V44.5171Z" fill="#87CED9"/>
<path d="M32.8867 50.9853H4.8584V53.1413H32.8867V50.9853Z" fill="#87CED9"/>
<path d="M40.4333 28.347H38.2773V32.6591H40.4333V28.347Z" fill="#87CED9"/>
<path d="M44.7448 28.347H42.5889V32.6591H44.7448V28.347Z" fill="#87CED9"/>
<path d="M49.0564 28.347H46.9004V32.6591H49.0564V28.347Z" fill="#87CED9"/>
<path d="M53.3689 28.347H51.2129V32.6591H53.3689V28.347Z" fill="#87CED9"/>
</g>
<defs>
<clipPath id="clip0">
<rect width="61.8961" height="50.0487" fill="white" transform="translate(0.546875 9.56573)"/>
</clipPath>
</defs>
</svg>
